<svg xmlns="http://www.w3.org/2000/svg" xmlns:xlink="http://www.w3.org/1999/xlink" width="40" zoomAndPan="magnify" viewBox="0 0 30 30.000001" height="40" preserveAspectRatio="xMidYMid meet" version="1.0"><defs><clipPath id="ec43eec11a"><path d="M 0.484375 0 L 29.515625 0 L 29.515625 29.03125 L 0.484375 29.03125 Z M 0.484375 0 " clip-rule="nonzero"/></clipPath><clipPath id="0534c31160"><path d="M 1.574219 1.089844 L 28.425781 1.089844 L 28.425781 27.945312 L 1.574219 27.945312 Z M 1.574219 1.089844 " clip-rule="nonzero"/></clipPath><clipPath id="d56d3a4087"><path d="M 15 1.089844 C 7.585938 1.089844 1.574219 7.101562 1.574219 14.515625 C 1.574219 21.933594 7.585938 27.945312 15 27.945312 C 22.414062 27.945312 28.425781 21.933594 28.425781 14.515625 C 28.425781 7.101562 22.414062 1.089844 15 1.089844 Z M 15 1.089844 " clip-rule="nonzero"/></clipPath><clipPath id="6835ef9c6c"><path d="M 0.574219 0.0898438 L 27.425781 0.0898438 L 27.425781 26.945312 L 0.574219 26.945312 Z M 0.574219 0.0898438 " clip-rule="nonzero"/></clipPath><clipPath id="c1adcd2cd6"><path d="M 14 0.0898438 C 6.585938 0.0898438 0.574219 6.101562 0.574219 13.515625 C 0.574219 20.933594 6.585938 26.945312 14 26.945312 C 21.414062 26.945312 27.425781 20.933594 27.425781 13.515625 C 27.425781 6.101562 21.414062 0.0898438 14 0.0898438 Z M 14 0.0898438 " clip-rule="nonzero"/></clipPath><clipPath id="ff87b2920f"><rect x="0" width="28" y="0" height="27"/></clipPath><clipPath id="5e9dc84ff9"><path d="M 19 12 L 23.871094 12 L 23.871094 22 L 19 22 Z M 19 12 " clip-rule="nonzero"/></clipPath><clipPath id="e67a9974ec"><path d="M 10 17 L 19 17 L 19 23.390625 L 10 23.390625 Z M 10 17 " clip-rule="nonzero"/></clipPath><clipPath id="6717289be7"><path d="M 6.453125 14 L 15 14 L 15 22 L 6.453125 22 Z M 6.453125 14 " clip-rule="nonzero"/></clipPath><clipPath id="9b0f13ae0e"><path d="M 6.453125 7 L 11 7 L 11 17 L 6.453125 17 Z M 6.453125 7 " clip-rule="nonzero"/></clipPath><clipPath id="a2194b1b68"><path d="M 11 5.96875 L 20 5.96875 L 20 12 L 11 12 Z M 11 5.96875 " clip-rule="nonzero"/></clipPath><clipPath id="9dea872143"><path d="M 15 7 L 23.871094 7 L 23.871094 15 L 15 15 Z M 15 7 " clip-rule="nonzero"/></clipPath></defs><g clip-path="url(#ec43eec11a)"><path fill="#ffffff" d="M 0.484375 0 L 29.515625 0 L 29.515625 29.03125 L 0.484375 29.03125 Z M 0.484375 0 " fill-opacity="1" fill-rule="nonzero"/><path fill="#ffffff" d="M 0.484375 0 L 29.515625 0 L 29.515625 29.03125 L 0.484375 29.03125 Z M 0.484375 0 " fill-opacity="1" fill-rule="nonzero"/></g><g clip-path="url(#0534c31160)"><g clip-path="url(#d56d3a4087)"><g transform="matrix(1, 0, 0, 1, 1, 1)"><g clip-path="url(#ff87b2920f)"><g clip-path="url(#6835ef9c6c)"><g clip-path="url(#c1adcd2cd6)"><path fill="#dd3d93" d="M 0.574219 0.0898438 L 27.425781 0.0898438 L 27.425781 26.945312 L 0.574219 26.945312 Z M 0.574219 0.0898438 " fill-opacity="1" fill-rule="nonzero"/></g></g></g></g></g></g><g clip-path="url(#5e9dc84ff9)"><path fill="#c7ef63" d="M 19.503906 12.605469 L 19.503906 21.777344 C 21.816406 20.339844 23.394531 17.820312 23.53125 14.929688 L 19.503906 12.605469 " fill-opacity="1" fill-rule="nonzero"/></g><g clip-path="url(#e67a9974ec)"><path fill="#c7ef63" d="M 18.90625 17.460938 L 15 19.714844 L 10.960938 22.046875 C 12.164062 22.691406 13.539062 23.058594 15 23.058594 C 16.40625 23.058594 17.734375 22.71875 18.90625 22.113281 L 18.90625 17.460938 " fill-opacity="1" fill-rule="nonzero"/></g><g clip-path="url(#6717289be7)"><path fill="#c7ef63" d="M 14.402344 19.371094 L 10.496094 17.117188 L 6.457031 14.785156 C 6.546875 17.6875 8.085938 20.222656 10.371094 21.699219 L 14.402344 19.371094 " fill-opacity="1" fill-rule="nonzero"/></g><g clip-path="url(#9b0f13ae0e)"><path fill="#c7ef63" d="M 10.496094 16.425781 L 10.496094 7.253906 C 8.179688 8.691406 6.601562 11.207031 6.464844 14.101562 L 10.496094 16.425781 " fill-opacity="1" fill-rule="nonzero"/></g><g clip-path="url(#a2194b1b68)"><path fill="#c7ef63" d="M 15 5.96875 C 13.589844 5.96875 12.265625 6.3125 11.09375 6.914062 L 11.09375 11.570312 L 15 9.3125 L 19.035156 6.984375 C 17.835938 6.335938 16.460938 5.96875 15 5.96875 " fill-opacity="1" fill-rule="nonzero"/></g><g clip-path="url(#9dea872143)"><path fill="#c7ef63" d="M 19.625 7.332031 L 15.597656 9.65625 L 19.503906 11.914062 L 23.539062 14.242188 C 23.449219 11.34375 21.914062 8.804688 19.625 7.332031 " fill-opacity="1" fill-rule="nonzero"/></g></svg>