<svg xmlns="http://www.w3.org/2000/svg" xmlns:xlink="http://www.w3.org/1999/xlink" width="40" zoomAndPan="magnify" viewBox="0 0 30 30.000001" height="40" preserveAspectRatio="xMidYMid meet" version="1.0"><defs><clipPath id="6ae82ce503"><path d="M 0.484375 0 L 29.515625 0 L 29.515625 29.03125 L 0.484375 29.03125 Z M 0.484375 0 " clip-rule="nonzero"/></clipPath><clipPath id="ff332339ff"><path d="M 0.976562 4.277344 L 29.28125 4.277344 L 29.28125 24.601562 L 0.976562 24.601562 Z M 0.976562 4.277344 " clip-rule="nonzero"/></clipPath></defs><g clip-path="url(#6ae82ce503)"><path fill="#ffffff" d="M 0.484375 0 L 29.515625 0 L 29.515625 29.03125 L 0.484375 29.03125 Z M 0.484375 0 " fill-opacity="1" fill-rule="nonzero"/><path fill="#ffffff" d="M 0.484375 0 L 29.515625 0 L 29.515625 29.03125 L 0.484375 29.03125 Z M 0.484375 0 " fill-opacity="1" fill-rule="nonzero"/></g><g clip-path="url(#ff332339ff)"><path fill="#000000" d="M 26.734375 8.664062 L 21.753906 8.664062 L 20.015625 5.5 C 19.816406 5.140625 19.542969 4.859375 19.1875 4.648438 C 18.832031 4.4375 18.445312 4.332031 18.03125 4.332031 L 12.253906 4.332031 C 11.832031 4.332031 11.441406 4.441406 11.082031 4.65625 C 10.722656 4.871094 10.441406 5.164062 10.25 5.53125 L 8.589844 8.664062 L 7.484375 8.664062 C 7.476562 8.476562 7.40625 8.320312 7.269531 8.1875 C 7.128906 8.058594 6.964844 7.992188 6.773438 7.992188 L 6.394531 7.992188 C 6.324219 7.820312 6.191406 7.734375 6.003906 7.734375 L 4.964844 7.734375 C 4.773438 7.734375 4.644531 7.820312 4.574219 7.992188 L 4.203125 7.992188 C 4.011719 7.992188 3.847656 8.058594 3.710938 8.1875 C 3.574219 8.320312 3.5 8.476562 3.496094 8.664062 C 3.160156 8.667969 2.835938 8.734375 2.527344 8.863281 C 2.21875 8.992188 1.949219 9.171875 1.710938 9.410156 C 1.476562 9.644531 1.292969 9.914062 1.167969 10.21875 C 1.039062 10.523438 0.976562 10.839844 0.976562 11.171875 L 0.976562 22.050781 C 0.976562 22.382812 1.039062 22.703125 1.167969 23.011719 C 1.296875 23.316406 1.484375 23.589844 1.722656 23.824219 C 1.960938 24.058594 2.234375 24.238281 2.546875 24.367188 C 2.859375 24.496094 3.183594 24.558594 3.523438 24.558594 L 26.734375 24.558594 C 27.070312 24.558594 27.398438 24.496094 27.710938 24.367188 C 28.019531 24.238281 28.296875 24.058594 28.535156 23.824219 C 28.773438 23.589844 28.957031 23.316406 29.085938 23.011719 C 29.21875 22.703125 29.28125 22.382812 29.28125 22.050781 L 29.28125 11.15625 C 29.28125 10.824219 29.214844 10.507812 29.082031 10.203125 C 28.953125 9.898438 28.769531 9.628906 28.53125 9.394531 C 28.292969 9.160156 28.015625 8.980469 27.707031 8.855469 C 27.394531 8.726562 27.070312 8.664062 26.734375 8.664062 Z M 15.128906 22.585938 C 14.675781 22.585938 14.222656 22.542969 13.777344 22.457031 C 13.332031 22.367188 12.898438 22.238281 12.480469 22.070312 C 12.058594 21.898438 11.660156 21.6875 11.28125 21.441406 C 10.90625 21.191406 10.554688 20.910156 10.234375 20.59375 C 9.910156 20.277344 9.625 19.933594 9.371094 19.5625 C 9.121094 19.191406 8.90625 18.796875 8.734375 18.386719 C 8.558594 17.972656 8.425781 17.546875 8.339844 17.109375 C 8.25 16.671875 8.203125 16.226562 8.203125 15.78125 C 8.203125 15.332031 8.25 14.890625 8.335938 14.453125 C 8.425781 14.015625 8.558594 13.589844 8.730469 13.175781 C 8.90625 12.761719 9.117188 12.371094 9.371094 11.996094 C 9.621094 11.625 9.910156 11.28125 10.230469 10.964844 C 10.550781 10.648438 10.902344 10.367188 11.28125 10.117188 C 11.65625 9.871094 12.054688 9.660156 12.476562 9.488281 C 12.894531 9.320312 13.328125 9.1875 13.773438 9.101562 C 14.21875 9.015625 14.671875 8.972656 15.125 8.972656 C 15.578125 8.972656 16.03125 9.015625 16.476562 9.101562 C 16.921875 9.1875 17.355469 9.316406 17.773438 9.488281 C 18.195312 9.660156 18.59375 9.871094 18.96875 10.117188 C 19.347656 10.367188 19.699219 10.648438 20.019531 10.964844 C 20.339844 11.28125 20.628906 11.625 20.878906 11.996094 C 21.132812 12.367188 21.347656 12.761719 21.519531 13.171875 C 21.695312 13.585938 21.824219 14.011719 21.914062 14.449219 C 22.003906 14.890625 22.046875 15.332031 22.046875 15.777344 C 22.046875 16.226562 22.003906 16.667969 21.914062 17.105469 C 21.824219 17.542969 21.695312 17.96875 21.519531 18.382812 C 21.347656 18.796875 21.132812 19.1875 20.882812 19.558594 C 20.628906 19.929688 20.339844 20.277344 20.019531 20.589844 C 19.699219 20.90625 19.351562 21.191406 18.972656 21.4375 C 18.59375 21.6875 18.195312 21.894531 17.777344 22.066406 C 17.355469 22.238281 16.925781 22.367188 16.476562 22.457031 C 16.03125 22.542969 15.582031 22.585938 15.128906 22.585938 Z M 26.660156 12.582031 C 26.507812 12.582031 26.359375 12.554688 26.21875 12.496094 C 26.078125 12.4375 25.949219 12.355469 25.84375 12.25 C 25.734375 12.144531 25.648438 12.023438 25.589844 11.882812 C 25.53125 11.742188 25.503906 11.597656 25.503906 11.445312 C 25.503906 11.296875 25.53125 11.152344 25.589844 11.011719 C 25.648438 10.871094 25.734375 10.75 25.839844 10.644531 C 25.949219 10.535156 26.074219 10.453125 26.214844 10.398438 C 26.359375 10.339844 26.503906 10.308594 26.660156 10.308594 C 26.8125 10.308594 26.960938 10.339844 27.101562 10.398438 C 27.242188 10.457031 27.367188 10.539062 27.476562 10.644531 C 27.585938 10.75 27.667969 10.875 27.726562 11.011719 C 27.785156 11.152344 27.8125 11.296875 27.8125 11.449219 C 27.8125 11.597656 27.785156 11.742188 27.726562 11.882812 C 27.667969 12.023438 27.582031 12.144531 27.476562 12.25 C 27.367188 12.355469 27.242188 12.4375 27.101562 12.496094 C 26.960938 12.554688 26.8125 12.582031 26.660156 12.582031 Z M 26.660156 12.582031 " fill-opacity="1" fill-rule="nonzero"/></g><path fill="#000000" d="M 19.953125 15.777344 C 19.953125 16.089844 19.921875 16.398438 19.859375 16.703125 C 19.796875 17.011719 19.707031 17.304688 19.585938 17.59375 C 19.464844 17.882812 19.316406 18.15625 19.140625 18.414062 C 18.964844 18.671875 18.761719 18.914062 18.539062 19.132812 C 18.316406 19.355469 18.070312 19.550781 17.808594 19.722656 C 17.546875 19.898438 17.265625 20.042969 16.972656 20.160156 C 16.683594 20.28125 16.378906 20.371094 16.070312 20.433594 C 15.757812 20.492188 15.445312 20.523438 15.128906 20.523438 C 14.8125 20.523438 14.5 20.492188 14.1875 20.433594 C 13.875 20.371094 13.574219 20.28125 13.28125 20.160156 C 12.988281 20.042969 12.710938 19.898438 12.449219 19.722656 C 12.183594 19.550781 11.941406 19.355469 11.71875 19.132812 C 11.492188 18.914062 11.292969 18.671875 11.117188 18.414062 C 10.941406 18.15625 10.792969 17.882812 10.671875 17.59375 C 10.550781 17.304688 10.460938 17.011719 10.398438 16.703125 C 10.335938 16.398438 10.304688 16.089844 10.304688 15.777344 C 10.304688 15.46875 10.335938 15.160156 10.398438 14.851562 C 10.460938 14.546875 10.550781 14.25 10.671875 13.964844 C 10.792969 13.675781 10.941406 13.402344 11.117188 13.144531 C 11.292969 12.882812 11.492188 12.644531 11.71875 12.421875 C 11.941406 12.203125 12.183594 12.007812 12.449219 11.832031 C 12.710938 11.660156 12.988281 11.515625 13.28125 11.394531 C 13.574219 11.277344 13.875 11.1875 14.1875 11.125 C 14.5 11.066406 14.8125 11.035156 15.128906 11.035156 C 15.445312 11.035156 15.757812 11.066406 16.070312 11.125 C 16.378906 11.1875 16.683594 11.277344 16.972656 11.394531 C 17.265625 11.515625 17.546875 11.660156 17.808594 11.832031 C 18.070312 12.007812 18.316406 12.203125 18.539062 12.421875 C 18.761719 12.644531 18.964844 12.882812 19.140625 13.144531 C 19.316406 13.402344 19.464844 13.675781 19.585938 13.964844 C 19.707031 14.25 19.796875 14.546875 19.859375 14.851562 C 19.921875 15.160156 19.953125 15.46875 19.953125 15.777344 Z M 19.953125 15.777344 " fill-opacity="1" fill-rule="nonzero"/></svg>