<svg xmlns="http://www.w3.org/2000/svg" xmlns:xlink="http://www.w3.org/1999/xlink" width="40" zoomAndPan="magnify" viewBox="0 0 30 30.000001" height="40" preserveAspectRatio="xMidYMid meet" version="1.0"><defs><g/><clipPath id="a7ac09d1e2"><path d="M 0.484375 0 L 29.515625 0 L 29.515625 29.03125 L 0.484375 29.03125 Z M 0.484375 0 " clip-rule="nonzero"/></clipPath><clipPath id="b7128adc5a"><path d="M 0.484375 9.21875 L 29.515625 9.21875 L 29.515625 19.8125 L 0.484375 19.8125 Z M 0.484375 9.21875 " clip-rule="nonzero"/></clipPath><clipPath id="84692a1c77"><path d="M 3.386719 9.21875 L 26.613281 9.21875 C 28.214844 9.21875 29.515625 10.519531 29.515625 12.121094 L 29.515625 16.910156 C 29.515625 18.511719 28.214844 19.8125 26.613281 19.8125 L 3.386719 19.8125 C 1.785156 19.8125 0.484375 18.511719 0.484375 16.910156 L 0.484375 12.121094 C 0.484375 10.519531 1.785156 9.21875 3.386719 9.21875 Z M 3.386719 9.21875 " clip-rule="nonzero"/></clipPath><clipPath id="64d95331f3"><path d="M 0.484375 0.21875 L 29.515625 0.21875 L 29.515625 10.8125 L 0.484375 10.8125 Z M 0.484375 0.21875 " clip-rule="nonzero"/></clipPath><clipPath id="7b01edc8cc"><path d="M 3.386719 0.21875 L 26.613281 0.21875 C 28.214844 0.21875 29.515625 1.519531 29.515625 3.121094 L 29.515625 7.910156 C 29.515625 9.511719 28.214844 10.8125 26.613281 10.8125 L 3.386719 10.8125 C 1.785156 10.8125 0.484375 9.511719 0.484375 7.910156 L 0.484375 3.121094 C 0.484375 1.519531 1.785156 0.21875 3.386719 0.21875 Z M 3.386719 0.21875 " clip-rule="nonzero"/></clipPath><clipPath id="131204a8e9"><rect x="0" width="30" y="0" height="11"/></clipPath><clipPath id="8e02f547e2"><path d="M 23.042969 14.183594 L 25.945312 14.183594 L 25.945312 15.632812 L 23.042969 15.632812 Z M 23.042969 14.183594 " clip-rule="nonzero"/></clipPath><clipPath id="608ed4ff10"><path d="M 4.410156 11.871094 L 8.765625 11.871094 L 8.765625 16.953125 L 4.410156 16.953125 Z M 4.410156 11.871094 " clip-rule="nonzero"/></clipPath></defs><g clip-path="url(#a7ac09d1e2)"><path fill="#ffffff" d="M 0.484375 0 L 29.515625 0 L 29.515625 29.03125 L 0.484375 29.03125 Z M 0.484375 0 " fill-opacity="1" fill-rule="nonzero"/><path fill="#ffffff" d="M 0.484375 0 L 29.515625 0 L 29.515625 29.03125 L 0.484375 29.03125 Z M 0.484375 0 " fill-opacity="1" fill-rule="nonzero"/></g><g clip-path="url(#b7128adc5a)"><g clip-path="url(#84692a1c77)"><g transform="matrix(1, 0, 0, 1, 0, 9)"><g clip-path="url(#131204a8e9)"><g clip-path="url(#64d95331f3)"><g clip-path="url(#7b01edc8cc)"><path fill="#feefff" d="M 0.484375 0.21875 L 29.53125 0.21875 L 29.53125 10.8125 L 0.484375 10.8125 Z M 0.484375 0.21875 " fill-opacity="1" fill-rule="nonzero"/></g></g></g></g></g></g><g fill="#000000" fill-opacity="1"><g transform="translate(9.306955, 15.026123)"><g/></g></g><g fill="#000000" fill-opacity="1"><g transform="translate(10.1875, 15.026123)"><g/></g></g><g fill="#000000" fill-opacity="1"><g transform="translate(11.076108, 15.026123)"><g><path d="M 0.796875 0 L 0.796875 -2.09375 L 0.09375 -2.09375 L 0.09375 -2.328125 L 1.765625 -2.328125 L 1.765625 -2.09375 L 1.078125 -2.09375 L 1.078125 0 Z M 0.796875 0 "/></g></g></g><g fill="#000000" fill-opacity="1"><g transform="translate(12.936895, 15.026123)"><g><path d="M 0.40625 -2.015625 C 0.34375 -2.015625 0.289062 -2.03125 0.25 -2.0625 C 0.21875 -2.101562 0.203125 -2.148438 0.203125 -2.203125 C 0.203125 -2.265625 0.21875 -2.3125 0.25 -2.34375 C 0.289062 -2.375 0.34375 -2.390625 0.40625 -2.390625 C 0.457031 -2.390625 0.5 -2.375 0.53125 -2.34375 C 0.570312 -2.3125 0.59375 -2.265625 0.59375 -2.203125 C 0.59375 -2.148438 0.570312 -2.101562 0.53125 -2.0625 C 0.5 -2.03125 0.457031 -2.015625 0.40625 -2.015625 Z M 0.265625 0 L 0.265625 -1.65625 L 0.546875 -1.65625 L 0.546875 0 Z M 0.265625 0 "/></g></g></g><g fill="#000000" fill-opacity="1"><g transform="translate(13.731045, 15.026123)"><g><path d="M 0.234375 0 L 0.234375 -1.65625 L 0.484375 -1.65625 L 0.5 -1.40625 C 0.550781 -1.5 0.617188 -1.566406 0.703125 -1.609375 C 0.796875 -1.660156 0.898438 -1.6875 1.015625 -1.6875 C 1.148438 -1.6875 1.265625 -1.660156 1.359375 -1.609375 C 1.453125 -1.554688 1.523438 -1.476562 1.578125 -1.375 C 1.628906 -1.46875 1.703125 -1.539062 1.796875 -1.59375 C 1.898438 -1.65625 2.015625 -1.6875 2.140625 -1.6875 C 2.335938 -1.6875 2.492188 -1.625 2.609375 -1.5 C 2.722656 -1.382812 2.78125 -1.207031 2.78125 -0.96875 L 2.78125 0 L 2.515625 0 L 2.515625 -0.9375 C 2.515625 -1.101562 2.476562 -1.226562 2.40625 -1.3125 C 2.332031 -1.40625 2.234375 -1.453125 2.109375 -1.453125 C 1.972656 -1.453125 1.859375 -1.398438 1.765625 -1.296875 C 1.679688 -1.191406 1.640625 -1.046875 1.640625 -0.859375 L 1.640625 0 L 1.375 0 L 1.375 -0.9375 C 1.375 -1.101562 1.335938 -1.226562 1.265625 -1.3125 C 1.191406 -1.40625 1.09375 -1.453125 0.96875 -1.453125 C 0.832031 -1.453125 0.722656 -1.398438 0.640625 -1.296875 C 0.554688 -1.191406 0.515625 -1.046875 0.515625 -0.859375 L 0.515625 0 Z M 0.234375 0 "/></g></g></g><g fill="#000000" fill-opacity="1"><g transform="translate(16.704973, 15.026123)"><g><path d="M 0.96875 0.046875 C 0.8125 0.046875 0.671875 0.0078125 0.546875 -0.0625 C 0.429688 -0.132812 0.335938 -0.234375 0.265625 -0.359375 C 0.191406 -0.492188 0.15625 -0.648438 0.15625 -0.828125 C 0.15625 -0.992188 0.1875 -1.140625 0.25 -1.265625 C 0.320312 -1.398438 0.421875 -1.503906 0.546875 -1.578125 C 0.671875 -1.648438 0.816406 -1.6875 0.984375 -1.6875 C 1.140625 -1.6875 1.273438 -1.648438 1.390625 -1.578125 C 1.503906 -1.503906 1.59375 -1.410156 1.65625 -1.296875 C 1.71875 -1.179688 1.75 -1.054688 1.75 -0.921875 C 1.75 -0.890625 1.75 -0.863281 1.75 -0.84375 C 1.75 -0.820312 1.75 -0.796875 1.75 -0.765625 L 0.4375 -0.765625 C 0.445312 -0.640625 0.476562 -0.535156 0.53125 -0.453125 C 0.582031 -0.367188 0.644531 -0.304688 0.71875 -0.265625 C 0.800781 -0.222656 0.882812 -0.203125 0.96875 -0.203125 C 1.082031 -0.203125 1.175781 -0.226562 1.25 -0.28125 C 1.332031 -0.332031 1.394531 -0.40625 1.4375 -0.5 L 1.703125 -0.5 C 1.660156 -0.34375 1.578125 -0.210938 1.453125 -0.109375 C 1.328125 -0.00390625 1.164062 0.046875 0.96875 0.046875 Z M 0.96875 -1.453125 C 0.832031 -1.453125 0.710938 -1.410156 0.609375 -1.328125 C 0.515625 -1.253906 0.457031 -1.140625 0.4375 -0.984375 L 1.484375 -0.984375 C 1.472656 -1.128906 1.421875 -1.242188 1.328125 -1.328125 C 1.234375 -1.410156 1.113281 -1.453125 0.96875 -1.453125 Z M 0.96875 -1.453125 "/></g></g></g><g fill="#000000" fill-opacity="1"><g transform="translate(18.595663, 15.026123)"><g><path d="M 0.234375 0 L 0.234375 -1.65625 L 0.484375 -1.65625 L 0.5 -1.328125 C 0.550781 -1.441406 0.628906 -1.53125 0.734375 -1.59375 C 0.835938 -1.65625 0.96875 -1.6875 1.125 -1.6875 L 1.125 -1.390625 L 1.046875 -1.390625 C 0.953125 -1.390625 0.863281 -1.375 0.78125 -1.34375 C 0.695312 -1.3125 0.628906 -1.253906 0.578125 -1.171875 C 0.535156 -1.085938 0.515625 -0.972656 0.515625 -0.828125 L 0.515625 0 Z M 0.234375 0 "/></g></g></g><g fill="#000000" fill-opacity="1"><g transform="translate(19.808467, 15.026123)"><g/></g></g><g clip-path="url(#8e02f547e2)"><path fill="#000000" d="M 24.484375 15.632812 C 24.433594 15.632812 24.382812 15.617188 24.34375 15.582031 L 23.101562 14.484375 C 23.019531 14.414062 23.019531 14.304688 23.101562 14.234375 C 23.179688 14.164062 23.308594 14.164062 23.386719 14.234375 L 24.484375 15.203125 L 25.585938 14.234375 C 25.664062 14.164062 25.792969 14.164062 25.871094 14.234375 C 25.949219 14.304688 25.949219 14.417969 25.871094 14.484375 L 24.628906 15.582031 C 24.589844 15.617188 24.539062 15.632812 24.484375 15.632812 Z M 24.484375 15.632812 " fill-opacity="1" fill-rule="nonzero"/></g><g clip-path="url(#608ed4ff10)"><path fill="#100f0d" d="M 6.585938 16.625 C 5.574219 16.625 4.746094 15.816406 4.746094 14.824219 C 4.746094 13.828125 5.574219 13.019531 6.585938 13.019531 C 7.601562 13.019531 8.429688 13.828125 8.429688 14.824219 C 8.429688 15.816406 7.601562 16.625 6.585938 16.625 Z M 7.769531 13.035156 L 7.957031 12.769531 C 8.007812 12.695312 7.988281 12.597656 7.914062 12.546875 L 7.828125 12.488281 C 7.753906 12.441406 7.652344 12.457031 7.601562 12.53125 L 7.382812 12.839844 C 7.199219 12.769531 7.003906 12.71875 6.796875 12.703125 L 6.796875 12.402344 L 6.898438 12.402344 C 6.988281 12.402344 7.058594 12.328125 7.058594 12.242188 L 7.058594 12.03125 C 7.058594 11.945312 6.988281 11.875 6.898438 11.875 L 6.277344 11.875 C 6.1875 11.875 6.117188 11.945312 6.117188 12.03125 L 6.117188 12.242188 C 6.117188 12.328125 6.1875 12.402344 6.277344 12.402344 L 6.378906 12.402344 L 6.378906 12.703125 C 5.277344 12.804688 4.410156 13.714844 4.410156 14.824219 C 4.410156 15.996094 5.386719 16.953125 6.585938 16.953125 C 7.789062 16.953125 8.765625 15.996094 8.765625 14.824219 C 8.765625 14.074219 8.367188 13.414062 7.769531 13.035156 " fill-opacity="1" fill-rule="nonzero"/></g><path fill="#100f0d" d="M 6.71875 14.617188 L 6.71875 13.464844 C 6.71875 13.398438 6.664062 13.347656 6.59375 13.347656 C 6.527344 13.347656 6.472656 13.398438 6.472656 13.464844 L 6.472656 14.613281 C 6.351562 14.65625 6.265625 14.773438 6.265625 14.910156 C 6.265625 15.082031 6.410156 15.226562 6.585938 15.226562 C 6.765625 15.226562 6.910156 15.082031 6.910156 14.910156 C 6.910156 14.777344 6.832031 14.667969 6.71875 14.617188 " fill-opacity="1" fill-rule="nonzero"/></svg>