<svg xmlns="http://www.w3.org/2000/svg" xmlns:xlink="http://www.w3.org/1999/xlink" width="40" zoomAndPan="magnify" viewBox="0 0 30 30.000001" height="40" preserveAspectRatio="xMidYMid meet" version="1.0"><defs><g/><clipPath id="4d83bbb9c6"><path d="M 0.484375 0 L 29.515625 0 L 29.515625 29.03125 L 0.484375 29.03125 Z M 0.484375 0 " clip-rule="nonzero"/></clipPath><clipPath id="eb7be11557"><path d="M 0.484375 8.53125 L 29.515625 8.53125 L 29.515625 20.5 L 0.484375 20.5 Z M 0.484375 8.53125 " clip-rule="nonzero"/></clipPath><clipPath id="6706a13372"><path d="M 4.113281 8.53125 L 25.886719 8.53125 C 26.847656 8.53125 27.773438 8.914062 28.453125 9.59375 C 29.132812 10.273438 29.515625 11.195312 29.515625 12.160156 L 29.515625 16.871094 C 29.515625 17.835938 29.132812 18.757812 28.453125 19.4375 C 27.773438 20.121094 26.847656 20.5 25.886719 20.5 L 4.113281 20.5 C 3.152344 20.5 2.226562 20.121094 1.546875 19.4375 C 0.867188 18.757812 0.484375 17.835938 0.484375 16.871094 L 0.484375 12.160156 C 0.484375 11.195312 0.867188 10.273438 1.546875 9.59375 C 2.226562 8.914062 3.152344 8.53125 4.113281 8.53125 Z M 4.113281 8.53125 " clip-rule="nonzero"/></clipPath><clipPath id="710dffd10e"><path d="M 0.484375 0.53125 L 29.515625 0.53125 L 29.515625 12.5 L 0.484375 12.5 Z M 0.484375 0.53125 " clip-rule="nonzero"/></clipPath><clipPath id="0b18b1b696"><path d="M 4.113281 0.53125 L 25.886719 0.53125 C 26.847656 0.53125 27.773438 0.914062 28.453125 1.59375 C 29.132812 2.273438 29.515625 3.195312 29.515625 4.160156 L 29.515625 8.871094 C 29.515625 9.835938 29.132812 10.757812 28.453125 11.4375 C 27.773438 12.121094 26.847656 12.5 25.886719 12.5 L 4.113281 12.5 C 3.152344 12.5 2.226562 12.121094 1.546875 11.4375 C 0.867188 10.757812 0.484375 9.835938 0.484375 8.871094 L 0.484375 4.160156 C 0.484375 3.195312 0.867188 2.273438 1.546875 1.59375 C 2.226562 0.914062 3.152344 0.53125 4.113281 0.53125 Z M 4.113281 0.53125 " clip-rule="nonzero"/></clipPath><clipPath id="8a63e64fec"><rect x="0" width="30" y="0" height="13"/></clipPath><clipPath id="d6fcc1d443"><path d="M 0.492188 8.53125 L 29.515625 8.53125 L 29.515625 20.144531 L 0.492188 20.144531 Z M 0.492188 8.53125 " clip-rule="nonzero"/></clipPath><clipPath id="4508812cb6"><path d="M 4.121094 8.53125 L 25.878906 8.53125 C 26.84375 8.53125 27.765625 8.914062 28.445312 9.59375 C 29.125 10.273438 29.507812 11.195312 29.507812 12.15625 L 29.507812 16.867188 C 29.507812 17.828125 29.125 18.753906 28.445312 19.433594 C 27.765625 20.113281 26.84375 20.496094 25.878906 20.496094 L 4.121094 20.496094 C 3.15625 20.496094 2.234375 20.113281 1.554688 19.433594 C 0.875 18.753906 0.492188 17.828125 0.492188 16.867188 L 0.492188 12.15625 C 0.492188 11.195312 0.875 10.273438 1.554688 9.59375 C 2.234375 8.914062 3.15625 8.53125 4.121094 8.53125 Z M 4.121094 8.53125 " clip-rule="nonzero"/></clipPath></defs><g clip-path="url(#4d83bbb9c6)"><path fill="#ffffff" d="M 0.484375 0 L 29.515625 0 L 29.515625 29.03125 L 0.484375 29.03125 Z M 0.484375 0 " fill-opacity="1" fill-rule="nonzero"/><path fill="#ffffff" d="M 0.484375 0 L 29.515625 0 L 29.515625 29.03125 L 0.484375 29.03125 Z M 0.484375 0 " fill-opacity="1" fill-rule="nonzero"/></g><g clip-path="url(#eb7be11557)"><g clip-path="url(#6706a13372)"><g transform="matrix(1, 0, 0, 1, 0, 8)"><g clip-path="url(#8a63e64fec)"><g clip-path="url(#710dffd10e)"><g clip-path="url(#0b18b1b696)"><path fill="#f9d7e2" d="M 0.484375 0.53125 L 29.523438 0.53125 L 29.523438 12.5 L 0.484375 12.5 Z M 0.484375 0.53125 " fill-opacity="1" fill-rule="nonzero"/></g></g></g></g></g></g><g clip-path="url(#d6fcc1d443)"><g clip-path="url(#4508812cb6)"><path stroke-linecap="butt" transform="matrix(0.725806, 0, 0, 0.725806, 0.492343, 8.530404)" fill="none" stroke-linejoin="miter" d="M 4.999612 0.00116602 L 34.97704 0.00116602 C 36.306381 0.00116602 37.576519 0.528597 38.512978 1.465055 C 39.449436 2.401513 39.976867 3.671652 39.976867 4.99561 L 39.976867 11.486235 C 39.976867 12.810193 39.449436 14.085714 38.512978 15.022172 C 37.576519 15.95863 36.306381 16.486061 34.97704 16.486061 L 4.999612 16.486061 C 3.670271 16.486061 2.400133 15.95863 1.463674 15.022172 C 0.527216 14.085714 -0.000214561 12.810193 -0.000214561 11.486235 L -0.000214561 4.99561 C -0.000214561 3.671652 0.527216 2.401513 1.463674 1.465055 C 2.400133 0.528597 3.670271 0.00116602 4.999612 0.00116602 Z M 4.999612 0.00116602 " stroke="#f9d7e2" stroke-width="2" stroke-opacity="1" stroke-miterlimit="4"/></g></g><g fill="#000000" fill-opacity="1"><g transform="translate(10.021421, 15.788468)"><g><path d="M 0.328125 0 L 0.328125 -3.078125 L 1.40625 -3.078125 C 1.625 -3.078125 1.800781 -3.039062 1.9375 -2.96875 C 2.082031 -2.894531 2.1875 -2.800781 2.25 -2.6875 C 2.320312 -2.570312 2.359375 -2.441406 2.359375 -2.296875 C 2.359375 -2.097656 2.304688 -1.941406 2.203125 -1.828125 C 2.097656 -1.710938 1.972656 -1.628906 1.828125 -1.578125 C 1.941406 -1.554688 2.046875 -1.507812 2.140625 -1.4375 C 2.234375 -1.375 2.304688 -1.289062 2.359375 -1.1875 C 2.410156 -1.082031 2.4375 -0.96875 2.4375 -0.84375 C 2.4375 -0.6875 2.394531 -0.539062 2.3125 -0.40625 C 2.238281 -0.28125 2.128906 -0.179688 1.984375 -0.109375 C 1.835938 -0.0351562 1.65625 0 1.4375 0 Z M 0.6875 -1.734375 L 1.375 -1.734375 C 1.570312 -1.734375 1.722656 -1.773438 1.828125 -1.859375 C 1.929688 -1.953125 1.984375 -2.082031 1.984375 -2.25 C 1.984375 -2.40625 1.929688 -2.53125 1.828125 -2.625 C 1.722656 -2.71875 1.566406 -2.765625 1.359375 -2.765625 L 0.6875 -2.765625 Z M 0.6875 -0.3125 L 1.40625 -0.3125 C 1.613281 -0.3125 1.773438 -0.359375 1.890625 -0.453125 C 2.003906 -0.546875 2.0625 -0.679688 2.0625 -0.859375 C 2.0625 -1.035156 2 -1.175781 1.875 -1.28125 C 1.757812 -1.382812 1.597656 -1.4375 1.390625 -1.4375 L 0.6875 -1.4375 Z M 0.6875 -0.3125 "/></g></g></g><g fill="#000000" fill-opacity="1"><g transform="translate(12.6567, 15.788468)"><g><path d="M 1.234375 0.046875 C 1.023438 0.046875 0.835938 0.0078125 0.671875 -0.0625 C 0.515625 -0.144531 0.390625 -0.253906 0.296875 -0.390625 C 0.210938 -0.523438 0.171875 -0.6875 0.171875 -0.875 C 0.171875 -1.082031 0.226562 -1.269531 0.34375 -1.4375 C 0.46875 -1.601562 0.644531 -1.734375 0.875 -1.828125 C 0.78125 -1.929688 0.707031 -2.03125 0.65625 -2.125 C 0.613281 -2.226562 0.59375 -2.335938 0.59375 -2.453125 C 0.59375 -2.648438 0.660156 -2.8125 0.796875 -2.9375 C 0.941406 -3.0625 1.140625 -3.125 1.390625 -3.125 C 1.546875 -3.125 1.679688 -3.09375 1.796875 -3.03125 C 1.910156 -2.976562 2 -2.894531 2.0625 -2.78125 C 2.132812 -2.675781 2.164062 -2.554688 2.15625 -2.421875 L 1.796875 -2.421875 C 1.796875 -2.554688 1.753906 -2.65625 1.671875 -2.71875 C 1.585938 -2.789062 1.492188 -2.828125 1.390625 -2.828125 C 1.253906 -2.828125 1.148438 -2.789062 1.078125 -2.71875 C 1.003906 -2.644531 0.96875 -2.554688 0.96875 -2.453125 C 0.96875 -2.359375 0.992188 -2.265625 1.046875 -2.171875 C 1.097656 -2.085938 1.171875 -1.992188 1.265625 -1.890625 L 2.25 -0.90625 C 2.332031 -1.03125 2.421875 -1.179688 2.515625 -1.359375 L 2.65625 -1.59375 L 3.046875 -1.59375 L 2.859375 -1.25 C 2.722656 -1.019531 2.597656 -0.828125 2.484375 -0.671875 L 3.140625 0 L 2.6875 0 L 2.28125 -0.40625 C 2.125 -0.238281 1.960938 -0.117188 1.796875 -0.046875 C 1.628906 0.015625 1.441406 0.046875 1.234375 0.046875 Z M 0.546875 -0.890625 C 0.546875 -0.710938 0.609375 -0.5625 0.734375 -0.4375 C 0.859375 -0.320312 1.023438 -0.265625 1.234375 -0.265625 C 1.390625 -0.265625 1.53125 -0.289062 1.65625 -0.34375 C 1.789062 -0.40625 1.914062 -0.507812 2.03125 -0.65625 L 1.109375 -1.59375 C 0.910156 -1.519531 0.765625 -1.421875 0.671875 -1.296875 C 0.585938 -1.179688 0.546875 -1.046875 0.546875 -0.890625 Z M 0.546875 -0.890625 "/></g></g></g><g fill="#000000" fill-opacity="1"><g transform="translate(15.725152, 15.788468)"><g><path d="M 0.953125 0 L 0.109375 -3.078125 L 0.515625 -3.078125 L 1.171875 -0.4375 L 1.921875 -3.078125 L 2.328125 -3.078125 L 3.0625 -0.4375 L 3.734375 -3.078125 L 4.140625 -3.078125 L 3.28125 0 L 2.859375 0 L 2.125 -2.53125 L 1.375 0 Z M 0.953125 0 "/></g></g></g></svg>