<svg xmlns="http://www.w3.org/2000/svg" xmlns:xlink="http://www.w3.org/1999/xlink" width="40" zoomAndPan="magnify" viewBox="0 0 30 30.000001" height="40" preserveAspectRatio="xMidYMid meet" version="1.0"><defs><g/><clipPath id="277b3be722"><path d="M 0.484375 0 L 29.515625 0 L 29.515625 29.03125 L 0.484375 29.03125 Z M 0.484375 0 " clip-rule="nonzero"/></clipPath><clipPath id="0cb1218552"><path d="M 0.484375 8.53125 L 29.515625 8.53125 L 29.515625 20.5 L 0.484375 20.5 Z M 0.484375 8.53125 " clip-rule="nonzero"/></clipPath><clipPath id="2575154608"><path d="M 4.113281 8.53125 L 25.886719 8.53125 C 26.847656 8.53125 27.773438 8.914062 28.453125 9.59375 C 29.132812 10.273438 29.515625 11.195312 29.515625 12.160156 L 29.515625 16.871094 C 29.515625 17.835938 29.132812 18.757812 28.453125 19.4375 C 27.773438 20.121094 26.847656 20.5 25.886719 20.5 L 4.113281 20.5 C 3.152344 20.5 2.226562 20.121094 1.546875 19.4375 C 0.867188 18.757812 0.484375 17.835938 0.484375 16.871094 L 0.484375 12.160156 C 0.484375 11.195312 0.867188 10.273438 1.546875 9.59375 C 2.226562 8.914062 3.152344 8.53125 4.113281 8.53125 Z M 4.113281 8.53125 " clip-rule="nonzero"/></clipPath><clipPath id="0182ba73e4"><path d="M 0.484375 0.53125 L 29.515625 0.53125 L 29.515625 12.5 L 0.484375 12.5 Z M 0.484375 0.53125 " clip-rule="nonzero"/></clipPath><clipPath id="bf55c836a8"><path d="M 4.113281 0.53125 L 25.886719 0.53125 C 26.847656 0.53125 27.773438 0.914062 28.453125 1.59375 C 29.132812 2.273438 29.515625 3.195312 29.515625 4.160156 L 29.515625 8.871094 C 29.515625 9.835938 29.132812 10.757812 28.453125 11.4375 C 27.773438 12.121094 26.847656 12.5 25.886719 12.5 L 4.113281 12.5 C 3.152344 12.5 2.226562 12.121094 1.546875 11.4375 C 0.867188 10.757812 0.484375 9.835938 0.484375 8.871094 L 0.484375 4.160156 C 0.484375 3.195312 0.867188 2.273438 1.546875 1.59375 C 2.226562 0.914062 3.152344 0.53125 4.113281 0.53125 Z M 4.113281 0.53125 " clip-rule="nonzero"/></clipPath><clipPath id="5595b3778a"><rect x="0" width="30" y="0" height="13"/></clipPath><clipPath id="5a3d71f818"><path d="M 0.492188 8.53125 L 29.515625 8.53125 L 29.515625 20.144531 L 0.492188 20.144531 Z M 0.492188 8.53125 " clip-rule="nonzero"/></clipPath><clipPath id="8b420a78e9"><path d="M 4.121094 8.53125 L 25.878906 8.53125 C 26.84375 8.53125 27.765625 8.914062 28.445312 9.59375 C 29.125 10.273438 29.507812 11.195312 29.507812 12.15625 L 29.507812 16.867188 C 29.507812 17.828125 29.125 18.753906 28.445312 19.433594 C 27.765625 20.113281 26.84375 20.496094 25.878906 20.496094 L 4.121094 20.496094 C 3.15625 20.496094 2.234375 20.113281 1.554688 19.433594 C 0.875 18.753906 0.492188 17.828125 0.492188 16.867188 L 0.492188 12.15625 C 0.492188 11.195312 0.875 10.273438 1.554688 9.59375 C 2.234375 8.914062 3.15625 8.53125 4.121094 8.53125 Z M 4.121094 8.53125 " clip-rule="nonzero"/></clipPath></defs><g clip-path="url(#277b3be722)"><path fill="#ffffff" d="M 0.484375 0 L 29.515625 0 L 29.515625 29.03125 L 0.484375 29.03125 Z M 0.484375 0 " fill-opacity="1" fill-rule="nonzero"/><path fill="#ffffff" d="M 0.484375 0 L 29.515625 0 L 29.515625 29.03125 L 0.484375 29.03125 Z M 0.484375 0 " fill-opacity="1" fill-rule="nonzero"/></g><g clip-path="url(#0cb1218552)"><g clip-path="url(#2575154608)"><g transform="matrix(1, 0, 0, 1, 0, 8)"><g clip-path="url(#5595b3778a)"><g clip-path="url(#0182ba73e4)"><g clip-path="url(#bf55c836a8)"><path fill="#feefff" d="M 0.484375 0.53125 L 29.523438 0.53125 L 29.523438 12.5 L 0.484375 12.5 Z M 0.484375 0.53125 " fill-opacity="1" fill-rule="nonzero"/></g></g></g></g></g></g><g clip-path="url(#5a3d71f818)"><g clip-path="url(#8b420a78e9)"><path stroke-linecap="butt" transform="matrix(0.725806, 0, 0, 0.725806, 0.492343, 8.530404)" fill="none" stroke-linejoin="miter" d="M 4.999612 0.00116602 L 34.97704 0.00116602 C 36.306381 0.00116602 37.576519 0.528597 38.512978 1.465055 C 39.449436 2.401513 39.976867 3.671652 39.976867 4.99561 L 39.976867 11.486235 C 39.976867 12.810193 39.449436 14.085714 38.512978 15.022172 C 37.576519 15.95863 36.306381 16.486061 34.97704 16.486061 L 4.999612 16.486061 C 3.670271 16.486061 2.400133 15.95863 1.463674 15.022172 C 0.527216 14.085714 -0.000214561 12.810193 -0.000214561 11.486235 L -0.000214561 4.99561 C -0.000214561 3.671652 0.527216 2.401513 1.463674 1.465055 C 2.400133 0.528597 3.670271 0.00116602 4.999612 0.00116602 Z M 4.999612 0.00116602 " stroke="#f9d7e2" stroke-width="2" stroke-opacity="1" stroke-miterlimit="4"/></g></g><g fill="#000000" fill-opacity="1"><g transform="translate(9.046118, 15.788468)"><g><path d="M 0.953125 0 L 0.109375 -3.078125 L 0.515625 -3.078125 L 1.171875 -0.4375 L 1.921875 -3.078125 L 2.328125 -3.078125 L 3.0625 -0.4375 L 3.734375 -3.078125 L 4.140625 -3.078125 L 3.28125 0 L 2.859375 0 L 2.125 -2.53125 L 1.375 0 Z M 0.953125 0 "/></g></g></g><g fill="#000000" fill-opacity="1"><g transform="translate(13.06439, 15.788468)"><g><path d="M 1.03125 0.046875 C 0.84375 0.046875 0.6875 0.0195312 0.5625 -0.03125 C 0.445312 -0.09375 0.359375 -0.175781 0.296875 -0.28125 C 0.242188 -0.382812 0.21875 -0.5 0.21875 -0.625 C 0.21875 -0.84375 0.300781 -1.007812 0.46875 -1.125 C 0.644531 -1.25 0.878906 -1.3125 1.171875 -1.3125 L 1.75 -1.3125 L 1.75 -1.34375 C 1.75 -1.53125 1.695312 -1.671875 1.59375 -1.765625 C 1.5 -1.867188 1.367188 -1.921875 1.203125 -1.921875 C 1.066406 -1.921875 0.945312 -1.882812 0.84375 -1.8125 C 0.738281 -1.738281 0.671875 -1.632812 0.640625 -1.5 L 0.265625 -1.5 C 0.273438 -1.65625 0.328125 -1.785156 0.421875 -1.890625 C 0.515625 -2.003906 0.628906 -2.085938 0.765625 -2.140625 C 0.898438 -2.203125 1.046875 -2.234375 1.203125 -2.234375 C 1.515625 -2.234375 1.742188 -2.148438 1.890625 -1.984375 C 2.046875 -1.828125 2.125 -1.613281 2.125 -1.34375 L 2.125 0 L 1.796875 0 L 1.78125 -0.390625 C 1.71875 -0.265625 1.625 -0.160156 1.5 -0.078125 C 1.382812 0.00390625 1.226562 0.046875 1.03125 0.046875 Z M 1.078125 -0.265625 C 1.222656 -0.265625 1.34375 -0.300781 1.4375 -0.375 C 1.539062 -0.445312 1.617188 -0.539062 1.671875 -0.65625 C 1.722656 -0.769531 1.75 -0.890625 1.75 -1.015625 L 1.75 -1.03125 L 1.203125 -1.03125 C 0.984375 -1.03125 0.828125 -0.988281 0.734375 -0.90625 C 0.648438 -0.832031 0.609375 -0.742188 0.609375 -0.640625 C 0.609375 -0.523438 0.648438 -0.429688 0.734375 -0.359375 C 0.816406 -0.296875 0.929688 -0.265625 1.078125 -0.265625 Z M 1.078125 -0.265625 "/></g></g></g><g fill="#000000" fill-opacity="1"><g transform="translate(15.432641, 15.788468)"><g><path d="M 0.296875 0 L 0.296875 -2.171875 L 0.640625 -2.171875 L 0.671875 -1.765625 C 0.734375 -1.898438 0.832031 -2.007812 0.96875 -2.09375 C 1.113281 -2.1875 1.285156 -2.234375 1.484375 -2.234375 L 1.484375 -1.84375 L 1.390625 -1.84375 C 1.253906 -1.84375 1.128906 -1.816406 1.015625 -1.765625 C 0.910156 -1.722656 0.828125 -1.648438 0.765625 -1.546875 C 0.703125 -1.441406 0.671875 -1.289062 0.671875 -1.09375 L 0.671875 0 Z M 0.296875 0 "/></g></g></g><g fill="#000000" fill-opacity="1"><g transform="translate(17.021683, 15.788468)"><g><path d="M 0.296875 0 L 0.296875 -2.171875 L 0.640625 -2.171875 L 0.65625 -1.859375 C 0.726562 -1.972656 0.820312 -2.0625 0.9375 -2.125 C 1.0625 -2.195312 1.195312 -2.234375 1.34375 -2.234375 C 1.507812 -2.234375 1.65625 -2.195312 1.78125 -2.125 C 1.90625 -2.050781 2.003906 -1.941406 2.078125 -1.796875 C 2.148438 -1.929688 2.253906 -2.035156 2.390625 -2.109375 C 2.523438 -2.191406 2.664062 -2.234375 2.8125 -2.234375 C 3.070312 -2.234375 3.28125 -2.15625 3.4375 -2 C 3.59375 -1.84375 3.671875 -1.597656 3.671875 -1.265625 L 3.671875 0 L 3.3125 0 L 3.3125 -1.234375 C 3.3125 -1.460938 3.265625 -1.632812 3.171875 -1.75 C 3.078125 -1.863281 2.945312 -1.921875 2.78125 -1.921875 C 2.601562 -1.921875 2.457031 -1.847656 2.34375 -1.703125 C 2.226562 -1.566406 2.171875 -1.375 2.171875 -1.125 L 2.171875 0 L 1.796875 0 L 1.796875 -1.234375 C 1.796875 -1.460938 1.75 -1.632812 1.65625 -1.75 C 1.570312 -1.863281 1.445312 -1.921875 1.28125 -1.921875 C 1.101562 -1.921875 0.957031 -1.847656 0.84375 -1.703125 C 0.726562 -1.566406 0.671875 -1.375 0.671875 -1.125 L 0.671875 0 Z M 0.296875 0 "/></g></g></g></svg>