<svg xmlns="http://www.w3.org/2000/svg" xmlns:xlink="http://www.w3.org/1999/xlink" width="40" zoomAndPan="magnify" viewBox="0 0 30 30.000001" height="40" preserveAspectRatio="xMidYMid meet" version="1.0"><defs><g/><clipPath id="3461be19df"><path d="M 0.484375 0 L 29.515625 0 L 29.515625 29.03125 L 0.484375 29.03125 Z M 0.484375 0 " clip-rule="nonzero"/></clipPath><clipPath id="4eefd8155e"><path d="M 0.484375 8.53125 L 29.515625 8.53125 L 29.515625 20.5 L 0.484375 20.5 Z M 0.484375 8.53125 " clip-rule="nonzero"/></clipPath><clipPath id="72045801c9"><path d="M 4.113281 8.53125 L 25.886719 8.53125 C 26.847656 8.53125 27.773438 8.914062 28.453125 9.59375 C 29.132812 10.273438 29.515625 11.195312 29.515625 12.160156 L 29.515625 16.871094 C 29.515625 17.835938 29.132812 18.757812 28.453125 19.4375 C 27.773438 20.121094 26.847656 20.5 25.886719 20.5 L 4.113281 20.5 C 3.152344 20.5 2.226562 20.121094 1.546875 19.4375 C 0.867188 18.757812 0.484375 17.835938 0.484375 16.871094 L 0.484375 12.160156 C 0.484375 11.195312 0.867188 10.273438 1.546875 9.59375 C 2.226562 8.914062 3.152344 8.53125 4.113281 8.53125 Z M 4.113281 8.53125 " clip-rule="nonzero"/></clipPath><clipPath id="369069bf56"><path d="M 0.484375 0.53125 L 29.515625 0.53125 L 29.515625 12.5 L 0.484375 12.5 Z M 0.484375 0.53125 " clip-rule="nonzero"/></clipPath><clipPath id="3bd1c9f188"><path d="M 4.113281 0.53125 L 25.886719 0.53125 C 26.847656 0.53125 27.773438 0.914062 28.453125 1.59375 C 29.132812 2.273438 29.515625 3.195312 29.515625 4.160156 L 29.515625 8.871094 C 29.515625 9.835938 29.132812 10.757812 28.453125 11.4375 C 27.773438 12.121094 26.847656 12.5 25.886719 12.5 L 4.113281 12.5 C 3.152344 12.5 2.226562 12.121094 1.546875 11.4375 C 0.867188 10.757812 0.484375 9.835938 0.484375 8.871094 L 0.484375 4.160156 C 0.484375 3.195312 0.867188 2.273438 1.546875 1.59375 C 2.226562 0.914062 3.152344 0.53125 4.113281 0.53125 Z M 4.113281 0.53125 " clip-rule="nonzero"/></clipPath><clipPath id="0efa863f6e"><rect x="0" width="30" y="0" height="13"/></clipPath><clipPath id="3d7b516422"><path d="M 0.492188 8.53125 L 29.515625 8.53125 L 29.515625 20.144531 L 0.492188 20.144531 Z M 0.492188 8.53125 " clip-rule="nonzero"/></clipPath><clipPath id="966c55a5b8"><path d="M 4.121094 8.53125 L 25.878906 8.53125 C 26.84375 8.53125 27.765625 8.914062 28.445312 9.59375 C 29.125 10.273438 29.507812 11.195312 29.507812 12.15625 L 29.507812 16.867188 C 29.507812 17.828125 29.125 18.753906 28.445312 19.433594 C 27.765625 20.113281 26.84375 20.496094 25.878906 20.496094 L 4.121094 20.496094 C 3.15625 20.496094 2.234375 20.113281 1.554688 19.433594 C 0.875 18.753906 0.492188 17.828125 0.492188 16.867188 L 0.492188 12.15625 C 0.492188 11.195312 0.875 10.273438 1.554688 9.59375 C 2.234375 8.914062 3.15625 8.53125 4.121094 8.53125 Z M 4.121094 8.53125 " clip-rule="nonzero"/></clipPath></defs><g clip-path="url(#3461be19df)"><path fill="#ffffff" d="M 0.484375 0 L 29.515625 0 L 29.515625 29.03125 L 0.484375 29.03125 Z M 0.484375 0 " fill-opacity="1" fill-rule="nonzero"/><path fill="#ffffff" d="M 0.484375 0 L 29.515625 0 L 29.515625 29.03125 L 0.484375 29.03125 Z M 0.484375 0 " fill-opacity="1" fill-rule="nonzero"/></g><g clip-path="url(#4eefd8155e)"><g clip-path="url(#72045801c9)"><g transform="matrix(1, 0, 0, 1, 0, 8)"><g clip-path="url(#0efa863f6e)"><g clip-path="url(#369069bf56)"><g clip-path="url(#3bd1c9f188)"><path fill="#feefff" d="M 0.484375 0.53125 L 29.523438 0.53125 L 29.523438 12.5 L 0.484375 12.5 Z M 0.484375 0.53125 " fill-opacity="1" fill-rule="nonzero"/></g></g></g></g></g></g><g clip-path="url(#3d7b516422)"><g clip-path="url(#966c55a5b8)"><path stroke-linecap="butt" transform="matrix(0.725806, 0, 0, 0.725806, 0.492343, 8.530396)" fill="none" stroke-linejoin="miter" d="M 4.999612 0.00117594 L 34.97704 0.00117594 C 36.306381 0.00117594 37.576519 0.528606 38.512978 1.465065 C 39.449436 2.401523 39.976867 3.671662 39.976867 4.99562 L 39.976867 11.486245 C 39.976867 12.810203 39.449436 14.085724 38.512978 15.022182 C 37.576519 15.95864 36.306381 16.486071 34.97704 16.486071 L 4.999612 16.486071 C 3.670271 16.486071 2.400133 15.95864 1.463674 15.022182 C 0.527216 14.085724 -0.000214561 12.810203 -0.000214561 11.486245 L -0.000214561 4.99562 C -0.000214561 3.671662 0.527216 2.401523 1.463674 1.465065 C 2.400133 0.528606 3.670271 0.00117594 4.999612 0.00117594 Z M 4.999612 0.00117594 " stroke="#f9d7e2" stroke-width="2" stroke-opacity="1" stroke-miterlimit="4"/></g></g><g fill="#000000" fill-opacity="1"><g transform="translate(10.871975, 15.788461)"><g><path d="M 0.328125 0 L 0.328125 -3.078125 L 0.6875 -3.078125 L 2.328125 -0.609375 L 2.328125 -3.078125 L 2.703125 -3.078125 L 2.703125 0 L 2.328125 0 L 0.6875 -2.46875 L 0.6875 0 Z M 0.328125 0 "/></g></g></g><g fill="#000000" fill-opacity="1"><g transform="translate(13.888099, 15.788461)"><g><path d="M 1.296875 0.046875 C 1.085938 0.046875 0.898438 0 0.734375 -0.09375 C 0.578125 -0.1875 0.445312 -0.316406 0.34375 -0.484375 C 0.25 -0.648438 0.203125 -0.851562 0.203125 -1.09375 C 0.203125 -1.320312 0.25 -1.519531 0.34375 -1.6875 C 0.445312 -1.863281 0.582031 -2 0.75 -2.09375 C 0.914062 -2.1875 1.097656 -2.234375 1.296875 -2.234375 C 1.503906 -2.234375 1.691406 -2.1875 1.859375 -2.09375 C 2.023438 -2 2.15625 -1.863281 2.25 -1.6875 C 2.34375 -1.519531 2.390625 -1.320312 2.390625 -1.09375 C 2.390625 -0.851562 2.335938 -0.648438 2.234375 -0.484375 C 2.140625 -0.316406 2.007812 -0.1875 1.84375 -0.09375 C 1.6875 0 1.503906 0.046875 1.296875 0.046875 Z M 1.296875 -0.265625 C 1.421875 -0.265625 1.535156 -0.296875 1.640625 -0.359375 C 1.753906 -0.421875 1.84375 -0.507812 1.90625 -0.625 C 1.976562 -0.75 2.015625 -0.90625 2.015625 -1.09375 C 2.015625 -1.269531 1.976562 -1.421875 1.90625 -1.546875 C 1.84375 -1.671875 1.753906 -1.765625 1.640625 -1.828125 C 1.535156 -1.890625 1.421875 -1.921875 1.296875 -1.921875 C 1.171875 -1.921875 1.054688 -1.890625 0.953125 -1.828125 C 0.847656 -1.765625 0.757812 -1.671875 0.6875 -1.546875 C 0.625 -1.421875 0.59375 -1.269531 0.59375 -1.09375 C 0.59375 -0.90625 0.625 -0.75 0.6875 -0.625 C 0.757812 -0.507812 0.847656 -0.421875 0.953125 -0.359375 C 1.054688 -0.296875 1.171875 -0.265625 1.296875 -0.265625 Z M 1.296875 -0.265625 "/></g></g></g><g fill="#000000" fill-opacity="1"><g transform="translate(16.479599, 15.788461)"><g><path d="M 0.53125 -2.65625 C 0.457031 -2.65625 0.394531 -2.679688 0.34375 -2.734375 C 0.289062 -2.785156 0.265625 -2.847656 0.265625 -2.921875 C 0.265625 -2.984375 0.289062 -3.035156 0.34375 -3.078125 C 0.394531 -3.128906 0.457031 -3.15625 0.53125 -3.15625 C 0.59375 -3.15625 0.648438 -3.128906 0.703125 -3.078125 C 0.753906 -3.035156 0.78125 -2.984375 0.78125 -2.921875 C 0.78125 -2.847656 0.753906 -2.785156 0.703125 -2.734375 C 0.648438 -2.679688 0.59375 -2.65625 0.53125 -2.65625 Z M 0.34375 0 L 0.34375 -2.171875 L 0.71875 -2.171875 L 0.71875 0 Z M 0.34375 0 "/></g></g></g><g fill="#000000" fill-opacity="1"><g transform="translate(17.525825, 15.788461)"><g><path d="M 0.296875 0 L 0.296875 -2.171875 L 0.640625 -2.171875 L 0.671875 -1.765625 C 0.734375 -1.898438 0.832031 -2.007812 0.96875 -2.09375 C 1.113281 -2.1875 1.285156 -2.234375 1.484375 -2.234375 L 1.484375 -1.84375 L 1.390625 -1.84375 C 1.253906 -1.84375 1.128906 -1.816406 1.015625 -1.765625 C 0.910156 -1.722656 0.828125 -1.648438 0.765625 -1.546875 C 0.703125 -1.441406 0.671875 -1.289062 0.671875 -1.09375 L 0.671875 0 Z M 0.296875 0 "/></g></g></g></svg>