<svg xmlns="http://www.w3.org/2000/svg" xmlns:xlink="http://www.w3.org/1999/xlink" width="40" zoomAndPan="magnify" viewBox="0 0 30 30.000001" height="40" preserveAspectRatio="xMidYMid meet" version="1.0"><defs><clipPath id="f0f51dd8b9"><path d="M 0.484375 0 L 29.515625 0 L 29.515625 29.03125 L 0.484375 29.03125 Z M 0.484375 0 " clip-rule="nonzero"/></clipPath><clipPath id="87982a4a19"><path d="M 8 1.027344 L 28 1.027344 L 28 22 L 8 22 Z M 8 1.027344 " clip-rule="nonzero"/></clipPath><clipPath id="5dc0f2b500"><path d="M 1.542969 1.027344 L 7 1.027344 L 7 5 L 1.542969 5 Z M 1.542969 1.027344 " clip-rule="nonzero"/></clipPath><clipPath id="beada8dfc6"><path d="M 1.542969 19 L 7 19 L 7 23 L 1.542969 23 Z M 1.542969 19 " clip-rule="nonzero"/></clipPath><clipPath id="d1220ca18d"><path d="M 3 1.027344 L 5 1.027344 L 5 22 L 3 22 Z M 3 1.027344 " clip-rule="nonzero"/></clipPath><clipPath id="ff22575431"><path d="M 7 22 L 11 22 L 11 27.882812 L 7 27.882812 Z M 7 22 " clip-rule="nonzero"/></clipPath><clipPath id="23a8012bce"><path d="M 25 22 L 28.398438 22 L 28.398438 27.882812 L 25 27.882812 Z M 25 22 " clip-rule="nonzero"/></clipPath></defs><g clip-path="url(#f0f51dd8b9)"><path fill="#ffffff" d="M 0.484375 0 L 29.515625 0 L 29.515625 29.03125 L 0.484375 29.03125 Z M 0.484375 0 " fill-opacity="1" fill-rule="nonzero"/><path fill="#ffffff" d="M 0.484375 0 L 29.515625 0 L 29.515625 29.03125 L 0.484375 29.03125 Z M 0.484375 0 " fill-opacity="1" fill-rule="nonzero"/></g><g clip-path="url(#87982a4a19)"><path fill="#000000" d="M 27.082031 21.195312 L 8.507812 21.195312 C 8.40625 21.195312 8.320312 21.160156 8.25 21.085938 C 8.175781 21.015625 8.140625 20.929688 8.140625 20.828125 L 8.140625 2.300781 C 8.140625 2.199219 8.175781 2.113281 8.25 2.039062 C 8.320312 1.96875 8.40625 1.933594 8.507812 1.933594 L 27.082031 1.933594 C 27.183594 1.933594 27.269531 1.96875 27.34375 2.039062 C 27.414062 2.113281 27.449219 2.199219 27.449219 2.300781 L 27.449219 20.828125 C 27.449219 20.929688 27.414062 21.015625 27.34375 21.085938 C 27.269531 21.160156 27.183594 21.195312 27.082031 21.195312 Z M 8.878906 20.457031 L 26.714844 20.457031 L 26.714844 2.667969 L 8.878906 2.667969 Z M 8.878906 20.457031 " fill-opacity="1" fill-rule="nonzero"/></g><g clip-path="url(#5dc0f2b500)"><path fill="#000000" d="M 6.511719 4.039062 C 6.410156 4.039062 6.324219 4 6.25 3.929688 L 4.230469 1.914062 L 2.210938 3.929688 C 2.136719 4 2.050781 4.039062 1.949219 4.039062 C 1.847656 4.039062 1.761719 4 1.6875 3.929688 C 1.617188 3.859375 1.582031 3.769531 1.582031 3.667969 C 1.582031 3.566406 1.617188 3.480469 1.6875 3.410156 L 3.96875 1.132812 C 4.042969 1.0625 4.128906 1.027344 4.230469 1.027344 C 4.332031 1.027344 4.417969 1.0625 4.492188 1.132812 L 6.773438 3.410156 C 6.890625 3.527344 6.914062 3.660156 6.851562 3.808594 C 6.789062 3.960938 6.675781 4.039062 6.511719 4.039062 Z M 6.511719 4.039062 " fill-opacity="1" fill-rule="nonzero"/></g><g clip-path="url(#beada8dfc6)"><path fill="#000000" d="M 4.230469 22.101562 C 4.128906 22.101562 4.042969 22.066406 3.96875 21.992188 L 1.6875 19.71875 C 1.617188 19.644531 1.582031 19.558594 1.582031 19.457031 C 1.582031 19.355469 1.617188 19.269531 1.6875 19.199219 C 1.761719 19.125 1.847656 19.089844 1.949219 19.089844 C 2.050781 19.089844 2.136719 19.125 2.210938 19.199219 L 4.230469 21.210938 L 6.25 19.199219 C 6.324219 19.125 6.410156 19.089844 6.511719 19.089844 C 6.613281 19.089844 6.699219 19.125 6.773438 19.199219 C 6.84375 19.269531 6.878906 19.355469 6.878906 19.457031 C 6.878906 19.558594 6.84375 19.644531 6.773438 19.71875 L 4.492188 21.992188 C 4.417969 22.066406 4.332031 22.101562 4.230469 22.101562 Z M 4.230469 22.101562 " fill-opacity="1" fill-rule="nonzero"/></g><g clip-path="url(#d1220ca18d)"><path fill="#000000" d="M 4.230469 21.421875 C 4.128906 21.421875 4.042969 21.386719 3.96875 21.316406 C 3.898438 21.242188 3.863281 21.15625 3.863281 21.054688 L 3.863281 1.597656 C 3.863281 1.496094 3.898438 1.410156 3.96875 1.335938 C 4.042969 1.265625 4.128906 1.230469 4.230469 1.230469 C 4.332031 1.230469 4.417969 1.265625 4.492188 1.335938 C 4.5625 1.410156 4.597656 1.496094 4.597656 1.597656 L 4.597656 21.054688 C 4.597656 21.15625 4.5625 21.242188 4.492188 21.316406 C 4.417969 21.386719 4.332031 21.421875 4.230469 21.421875 Z M 4.230469 21.421875 " fill-opacity="1" fill-rule="nonzero"/></g><g clip-path="url(#ff22575431)"><path fill="#000000" d="M 9.882812 27.882812 C 9.78125 27.882812 9.695312 27.84375 9.621094 27.773438 L 7.339844 25.496094 C 7.269531 25.425781 7.234375 25.339844 7.234375 25.238281 C 7.234375 25.136719 7.269531 25.050781 7.339844 24.976562 L 9.621094 22.703125 C 9.695312 22.628906 9.78125 22.59375 9.882812 22.59375 C 9.984375 22.59375 10.070312 22.628906 10.144531 22.703125 C 10.214844 22.773438 10.25 22.859375 10.25 22.960938 C 10.25 23.0625 10.214844 23.152344 10.144531 23.222656 L 8.121094 25.238281 L 10.144531 27.253906 C 10.257812 27.371094 10.285156 27.503906 10.222656 27.652344 C 10.160156 27.804688 10.046875 27.882812 9.882812 27.882812 Z M 9.882812 27.882812 " fill-opacity="1" fill-rule="nonzero"/></g><g clip-path="url(#23a8012bce)"><path fill="#000000" d="M 25.710938 27.882812 C 25.546875 27.882812 25.433594 27.804688 25.371094 27.652344 C 25.304688 27.503906 25.332031 27.371094 25.449219 27.253906 L 27.46875 25.238281 L 25.449219 23.222656 C 25.378906 23.152344 25.34375 23.0625 25.34375 22.960938 C 25.34375 22.859375 25.378906 22.773438 25.449219 22.703125 C 25.523438 22.632812 25.609375 22.59375 25.710938 22.59375 C 25.8125 22.59375 25.898438 22.632812 25.96875 22.703125 L 28.25 24.976562 C 28.324219 25.050781 28.359375 25.136719 28.359375 25.238281 C 28.359375 25.339844 28.324219 25.425781 28.25 25.496094 L 25.96875 27.773438 C 25.898438 27.84375 25.8125 27.882812 25.710938 27.882812 Z M 25.710938 27.882812 " fill-opacity="1" fill-rule="nonzero"/></g><path fill="#000000" d="M 27.3125 25.605469 L 7.804688 25.605469 C 7.703125 25.605469 7.617188 25.570312 7.542969 25.496094 C 7.472656 25.425781 7.4375 25.339844 7.4375 25.238281 C 7.4375 25.136719 7.472656 25.050781 7.542969 24.976562 C 7.617188 24.90625 7.703125 24.871094 7.804688 24.871094 L 27.3125 24.871094 C 27.414062 24.871094 27.5 24.90625 27.574219 24.976562 C 27.644531 25.050781 27.679688 25.136719 27.679688 25.238281 C 27.679688 25.339844 27.644531 25.425781 27.574219 25.496094 C 27.5 25.570312 27.414062 25.605469 27.3125 25.605469 Z M 27.3125 25.605469 " fill-opacity="1" fill-rule="nonzero"/></svg>